# xmcd
#
# Track frame offsets:
#	150
#	18273
#	30310
#	42325
#	55128
#	68429
#	79583
#	92976
#	106128
#	123268
#	133002
#	145052
#	155833
#	167652
#	179715
#	192010
#	204634
#	218220
#	227536
#	238667
#
# Disc length: 3340 seconds
#
# Revision: 1
# Processed by: cddbd v1.5.2PL0 Copyright (c) Steve Scherf et al.
# Submitted via: audiograbber 1.83.01
#
DISCID=0c0d0a14
DTITLE=Various Artist - Country Girl Meets Country Boy
DYEAR=1977
DGENRE=Country
TTITLE0=Johnny Cash - One Piece At A Time
TTITLE1=Tammy Wynette - Stand By Your Man 
TTITLE2=Charlie Rich - The Most Beautiful Girl 
TTITLE3=Lynn Anderson - Rose Garden
TTITLE4=Billy Swan - I Can Help
TTITLE5=Johnny Horton - The Battle Of New Orleans 
TTITLE6=David Houston - Almost Persuaded
TTITLE7=Tanya Tucker - Delta Dawn
TTITLE8=Ray Price - For The Good Times 
TTITLE9=Dolly Parton - Your Ole Handy Man
TTITLE10=Andy Williams - You Lay So Easy On Me
TTITLE11=Connie Smith - The Song We Fell In Love To 
TTITLE12=Jody Miller - There's A Party Going On 
TTITLE13=Carl and Pearl Butler - Lost 
TTITLE14=Frankie Laine - Your Cheating Heart
TTITLE15=Barbara Mandrell  - Right Back Feeling Like A Woman 
TTITLE16=Johnny Mathis - Everybody's Talkin'
TTITLE17=Carl Smith - Jimmy Brown The Newsboy 
TTITLE18=Stonewall Jackson - Waterloo
TTITLE19=Tommy Cash - Ring Of Fire
EXTD=
EXTT0=
EXTT1=
EXTT2=
EXTT3=
EXTT4=
EXTT5=
EXTT6=
EXTT7=
EXTT8=
EXTT9=
EXTT10=
EXTT11=
EXTT12=
EXTT13=
EXTT14=
EXTT15=
EXTT16=
EXTT17=
EXTT18=
EXTT19=
PLAYORDER=
